<svg width="32" height="32" fill="none" xmlns="http://www.w3.org/2000/svg"><g id="fi_6745230" clip-path="url('#clip0_544_44')"><path id="Vector" d="M31.72 5.512a.75.75 0 0 0-.562-.521l-3.4-.733-.733-3.4A.75.75 0 0 0 25.76.484l-4.397 4.398a14.278 14.278 0 0 0-6.822-1.732A14.198 14.198 0 0 0 4.436 7.337 14.198 14.198 0 0 0 .25 17.443c0 3.817 1.487 7.406 4.186 10.105 2.7 2.7 6.288 4.187 10.106 4.187 3.817 0 7.406-1.487 10.106-4.186 2.7-2.7 4.186-6.289 4.186-10.106 0-2.374-.59-4.706-1.71-6.782l4.406-4.407a.75.75 0 0 0 .19-.742Zm-14.066 11.93a3.116 3.116 0 0 1-3.112 3.113 3.116 3.116 0 0 1-3.112-3.112 3.116 3.116 0 0 1 3.112-3.113c.588 0 1.138.164 1.608.449l-2.138 2.133a.75.75 0 0 0 1.06 1.062l2.137-2.133c.282.468.445 1.016.445 1.602Zm-.422-3.743a4.586 4.586 0 0 0-2.69-.869 4.618 4.618 0 0 0-4.612 4.613 4.618 4.618 0 0 0 4.612 4.612 4.618 4.618 0 0 0 4.612-4.612c0-1-.32-1.926-.863-2.682l2.382-2.377a7.915 7.915 0 0 1 1.821 5.059c0 4.384-3.567 7.952-7.952 7.952S6.59 21.828 6.59 17.443s3.567-7.952 7.952-7.952c1.926 0 3.694.688 5.071 1.831L17.232 13.7Zm-2.69 16.536c-7.054 0-12.792-5.739-12.792-12.792 0-7.054 5.738-12.792 12.792-12.792 2.106 0 4.172.517 6.016 1.5 0 .007.001.014.003.02l.745 3.462-.628.627a9.41 9.41 0 0 0-6.136-2.27c-5.212 0-9.452 4.24-9.452 9.453 0 5.212 4.24 9.452 9.452 9.452s9.452-4.24 9.452-9.452a9.41 9.41 0 0 0-2.256-6.122l.619-.617 3.487.751a.17.17 0 0 1 .004 0 12.784 12.784 0 0 1 1.486 5.988c0 7.053-5.739 12.792-12.792 12.792ZM25.76 9.903l-2.14-.461 1.786-1.782a.75.75 0 0 0-1.06-1.061l-1.778 1.774-.456-2.118 3.736-3.736.544 2.528a.75.75 0 0 0 .575.575l2.528.545-3.735 3.736Z" fill="#1E498B"/></g><defs><clipPath id="clip0_544_44"><path fill="#fff" d="M0 0h32v32H0z"/></clipPath></defs></svg>