<svg width="29" height="28" fill="none" xmlns="http://www.w3.org/2000/svg"><g id="fi_3091221" clip-path="url('#clip0_544_31')"><g id="Group"><path id="Vector" d="M25.463 24.785 23.977 7.078c-.041-.49-.465-.866-.974-.866h-2.916v-.227C20.087 2.96 17.536.5 14.4.5S8.713 2.96 8.713 5.984v.227H5.797c-.51 0-.933.377-.974.866L3.337 24.785c-.058.698.19 1.392.682 1.906.492.514 1.19.809 1.915.809h16.932c.726 0 1.424-.295 1.916-.81.491-.513.739-1.207.68-1.905Zm-14.797-18.8c0-1.986 1.675-3.601 3.734-3.601s3.734 1.615 3.734 3.6v.227h-7.468v-.227Zm12.68 19.429a.655.655 0 0 1-.48.202H5.934a.654.654 0 0 1-.48-.202.61.61 0 0 1-.17-.477L6.699 8.096h2.015v4.669c0 .52.437.942.976.942.54 0 .977-.422.977-.942v-4.67h7.468v4.67c0 .52.437.942.976.942.54 0 .977-.422.977-.942v-4.67h2.015l1.413 16.844a.61.61 0 0 1-.17.476Z" fill="#1E498B"/></g></g><defs><clipPath id="clip0_544_31"><path fill="#fff" transform="translate(.4 .5)" d="M0 0h28v27H0z"/></clipPath></defs></svg>