<svg width="36" height="36" fill="none" xmlns="http://www.w3.org/2000/svg"><g id="fi_937159" clip-path="url('#clip0_544_58')"><g id="Group"><g id="Group_2"><path id="Vector" d="M32.08 7.657a2.296 2.296 0 0 0-1.236-1.517l.108-.255c.144-.342.148-.722.009-1.069a1.377 1.377 0 0 0-.477-.62l.567-1.383v-.005c.414-1.022-.059-2.211-1.048-2.646-.99-.435-2.15.037-2.582 1.05V1.221l-.563 1.36a1.352 1.352 0 0 0-1.475.829l-9.73 23.337a.785.785 0 0 0-.058.365l.225 3.156c-.436-.606-.89-1.217-1.426-1.75-.715-.707-1.822-1.61-3.158-1.295-.958.227-1.601 1.11-2.172 1.893-.18.245-.351.48-.509.657-.944 1.06-1.637.976-2.082.823a4.14 4.14 0 0 1-1.17-.67c.607-.44 1.201-.898 1.777-1.384.549-.463 1.178-1.036 1.678-1.763.333-.486.715-1.138.706-1.887a2.806 2.806 0 0 0-.909-2.013c-1.02-.93-2.32-1.11-3.657-.514a4.568 4.568 0 0 0-2.672 3.61c-.148 1.234.261 2.595 1.125 3.747-.958.643-1.934 1.258-2.897 1.86a.657.657 0 0 0-.211.888c.18.305.566.403.863.217a100.704 100.704 0 0 0 3.113-2.003c.571.518 1.206.911 1.844 1.138 1.201.421 2.353.023 3.419-1.175.198-.222.387-.481.585-.75.44-.601.94-1.286 1.448-1.406.571-.134 1.188.162 1.997.967.544.537 1.003 1.184 1.494 1.87.346.49.71.994 1.106 1.461a.615.615 0 0 0 .819.116.785.785 0 0 0 .265-.144l3.864-3.234.005-.004a.498.498 0 0 0 .05-.046l.004-.005c.018-.019.031-.037.049-.056.005-.004.009-.009.009-.014a.249.249 0 0 1 .031-.041c.005-.01.01-.014.014-.023.009-.014.013-.028.022-.042.005-.01.01-.014.014-.023l.027-.056V29.208l9.069-21.88c.251.13.44.37.512.653.077.3.01.625-.175.87-.005.004-.01.009-.01.014a2 2 0 0 0-.013.014c-1.12 1.665-1.785 3.178-2.087 4.76a13.53 13.53 0 0 0-.216 2.129.639.639 0 0 0 .608.666h.022a.643.643 0 0 0 .63-.63c.022-.749.085-1.36.193-1.92.266-1.401.868-2.757 1.885-4.274a2.345 2.345 0 0 0 .378-1.953ZM3.469 26.137a3.276 3.276 0 0 1 1.925-2.583 2.533 2.533 0 0 1 1.008-.23c.427 0 .881.133 1.318.531.297.268.481.671.486 1.05.004.384-.252.805-.477 1.134-.414.601-.963 1.096-1.449 1.508-.607.51-1.236.995-1.884 1.458-.707-.907-1.04-1.948-.927-2.869Zm13.9 4.445-.136-1.892a5.63 5.63 0 0 0 1.57.694l-1.435 1.198Zm2.644-2.313a4.375 4.375 0 0 1-2.82-1.24l6.162-14.782 2.785 1.226-6.127 14.796Zm6.622-15.98-2.785-1.227 2.865-6.87 2.762 1.235-2.842 6.862Zm3.009-10.087-.544 1.333-.824-.37.55-1.328a.434.434 0 0 1 .58-.231.466.466 0 0 1 .238.596Z" fill="#1E498B"/></g></g></g><defs><clipPath id="clip0_544_58"><path fill="#fff" transform="translate(.1)" d="M0 0h35v36H0z"/></clipPath></defs></svg>