<svg width="12" height="12" fill="none" xmlns="http://www.w3.org/2000/svg"><path d="M2.406 5.188c1 1.937 2.469 3.406 4.406 4.406l1.47-1.469c.208-.208.437-.26.687-.156.75.25 1.541.375 2.375.375.187 0 .344.062.469.187A.636.636 0 0 1 12 9v2.344a.636.636 0 0 1-.188.469.636.636 0 0 1-.468.187c-3.125 0-5.802-1.104-8.031-3.313C1.103 6.458 0 3.782 0 .658 0 .468.063.311.188.186A.636.636 0 0 1 .655 0H3c.188 0 .344.063.469.188a.636.636 0 0 1 .187.468c0 .834.125 1.625.375 2.375.084.271.032.5-.156.688L2.406 5.188Z" fill="#797979"/></svg>