<svg width="30" height="30" fill="none" xmlns="http://www.w3.org/2000/svg"><g id="fi_1288677" clip-path="url('#clip0_544_38')"><path id="Vector" d="M27.03-.059c-.032 0-.063.002-.094.005-.185.015-4.326.409-5.882 3.532l-5.62-.59a4.422 4.422 0 0 0-3.661 1.349l-9.695 9.996c-1.762 1.826-1.762 4.796.001 6.622l7.436 7.699a4.484 4.484 0 0 0 3.233 1.388c1.152 0 2.3-.451 3.172-1.353a1.2 1.2 0 0 0 .001-1.656 1.106 1.106 0 0 0-1.601-.001c-.875.904-2.312.888-3.203-.034l-7.436-7.7a2.403 2.403 0 0 1-.003-3.308l9.696-9.996c.483-.501 1.15-.747 1.831-.676l8.616.906.112 1.139c-1.57.605-3.063.702-3.097.704-.623.035-1.102.585-1.07 1.23.032.626.532 1.11 1.13 1.11h.06c.073-.005 1.522-.09 3.213-.65l.527 5.354a2.381 2.381 0 0 1-.65 1.892l-5.524 5.63a1.2 1.2 0 0 0-.012 1.657c.44.46 1.156.466 1.601.012l5.527-5.634.006-.005a4.761 4.761 0 0 0 1.305-3.79l-.601-6.104a7.532 7.532 0 0 0 1.917-1.624c.98-1.184 1.476-2.615 1.475-4.253v-.047c0-1.546-1.215-2.804-2.71-2.804Zm.446 2.852c0 1.309-.458 2.371-1.39 3.211l-.106-1.067a1.153 1.153 0 0 0-1.012-1.047l-1.313-.138c1.159-1.145 3.074-1.424 3.416-1.466.226.021.405.22.405.46v.047Zm-9.177 14.31a1.105 1.105 0 0 1-1.6 0 1.2 1.2 0 0 1 0-1.657.5.5 0 0 0 .139-.37.657.657 0 0 0-.19-.437l-.694-.717a.922.922 0 0 0-.651-.293.84.84 0 0 0-.628.27l-.179.185c-.369.382-.382 1.012-.03 1.377l.734.759a3.36 3.36 0 0 1 .946 2.31c.008.881-.32 1.711-.925 2.337l-.083.086c-.612.633-1.4.949-2.194.949a3.11 3.11 0 0 1-1.928-.683l-.474.473a1.109 1.109 0 0 1-1.601-.03 1.2 1.2 0 0 1 .028-1.655l.425-.424a2.988 2.988 0 0 1-.762-1.932 2.876 2.876 0 0 1 .81-2.073 1.106 1.106 0 0 1 1.6 0 1.2 1.2 0 0 1 0 1.657.496.496 0 0 0-.146.366.62.62 0 0 0 .182.416l1.193 1.233c.373.387.917.406 1.265.047l.084-.087a.923.923 0 0 0 .261-.655.99.99 0 0 0-.282-.678l-.734-.76c-1.242-1.284-1.228-3.388.03-4.69l.179-.184a3.066 3.066 0 0 1 2.219-.957h.034a3.086 3.086 0 0 1 1.62.483l.487-.52a1.106 1.106 0 0 1 1.601-.026 1.2 1.2 0 0 1 .026 1.656l-.48.513c.322.475.504 1.034.52 1.616a2.869 2.869 0 0 1-.802 2.095Z" fill="#1E498B"/></g><defs><clipPath id="clip0_544_38"><path fill="#fff" transform="translate(.7)" d="M0 0h29v30H0z"/></clipPath></defs></svg>