<svg width="33" height="32" fill="none" xmlns="http://www.w3.org/2000/svg"><g id="fi_1389079" clip-path="url('#clip0_544_50')" fill="#1E498B" stroke="#1E498B" stroke-width=".3"><path id="Vector" d="M30.626 16.691c-1.47-1.41-3.17-.09-3.17-.09V9.18a.46.46 0 0 0-.47-.452.46.46 0 0 0-.468.452v8.056s-2.235 1.697-3.196 2.111V5.986c0-.622.525-1.127 1.17-1.127h.856c.645 0 1.17.505 1.17 1.127v1.346c0 .25.21.451.469.451a.46.46 0 0 0 .468-.451V5.986c0-1.12-.945-2.03-2.107-2.03h-.856c-1.162 0-2.108.91-2.108 2.03v13.72c-.279.075-.566.126-.857.153v-9.516c0-1.125-.95-2.04-2.118-2.04h-.835c-1.168 0-2.118.915-2.118 2.04v4.599l-.858.438v-1.53c0-1.012-.855-1.836-1.906-1.836h-1.258c-1.051 0-1.906.824-1.906 1.836v4.122l-1.531.782-4.298 1.183a2.93 2.93 0 0 0-1.758 1.328 2.745 2.745 0 0 0-.295 2.133l.48 1.78a.47.47 0 0 0 .572.324.45.45 0 0 0 .336-.55l-.48-1.782c-.28-1.033.337-2.072 1.403-2.365l3.93-1.081 2.953 7.59c.198.508.166 1.958-1.396 2.493l-2.97.65c-1.034.226-2.054-.372-2.321-1.361l-.603-2.234a.47.47 0 0 0-.572-.323.45.45 0 0 0-.336.55l.604 2.234c.338 1.255 1.496 2.084 2.785 2.084.947 0 3.62-.72 3.62-.72a2.876 2.876 0 0 0 1.904-1.393 2.691 2.691 0 0 0 .284-1.894l10.273-2.422a6 6 0 0 0 2.332-1.124l5-3.956c1.524-1.302.63-2.777.182-3.207ZM18.573 9.206h.836c.65 0 1.18.51 1.18 1.137v9.538h-2.958c-.271-.003-.083-.176-.069-.188l.852-.664c.795-.62 1.314-1.482 1.543-2.562a1.741 1.741 0 0 0-.708-1.79 1.9 1.9 0 0 0-1.855-.208v-4.126c0-.627.529-1.137 1.18-1.137Zm-7.108 4.644c0-.514.435-.933.969-.933h1.258c.534 0 .969.418.969.933v2.01l-3.196 1.633V13.85Zm18.384 5.35-5 3.956a5.039 5.039 0 0 1-1.96.945L12.54 26.54l-2.783-7.153 7.947-4.062a.93.93 0 0 1 .983.073c.293.211.424.543.351.888-.184.87-.592 1.556-1.214 2.04l-.852.665a.974.974 0 0 0-.328 1.12c.15.407.538.671.987.671l3.415.001h.003a6 6 0 0 0 3.378-1.03l3.817-2.584a1.358 1.358 0 0 1 1.71.152c.264.259.779 1.027-.105 1.879Z"/><path id="Vector_2" d="M10.045 27.603c0-.98-.829-1.778-1.847-1.778s-1.847.798-1.847 1.778.829 1.778 1.847 1.778 1.847-.797 1.847-1.778Zm-2.756 0c0-.483.407-.876.909-.876.501 0 .91.393.91.876s-.409.876-.91.876c-.502 0-.91-.393-.91-.876Z"/><path id="Vector_3" d="m4.827 14.765 6.814-6.612 1.533.763c.549.274 1.217.18 1.662-.233l3.71-3.438s-.103 1.766 1.442 1.766c.794 0 1.442-.623 1.442-1.389V1.968c-.006-.95-.727-1.375-1.442-1.375h-3.749c-.795 0-1.442.623-1.442 1.388 0 1.526 1.613 1.389 1.613 1.389l-2.83 2.622-1.554-.774a1.478 1.478 0 0 0-1.686.255L2.78 12.81a1.354 1.354 0 0 0 .008 1.964c.272.26 1.2.8 2.04-.008Zm-1.382-1.32 7.56-7.336c.098-.094.254-.26.59-.09l1.853.924a.482.482 0 0 0 .541-.076l3.91-3.623a.44.44 0 0 0 .109-.494.469.469 0 0 0-.435-.283h-1.334a.496.496 0 0 1-.504-.486c0-.268.226-.486.504-.486h3.749c.137 0 .504 0 .504.483V5.622a.496.496 0 0 1-.504.486.496.496 0 0 1-.505-.486V4.184a.451.451 0 0 0-.285-.415.482.482 0 0 0-.509.09l-4.503 4.174a.52.52 0 0 1-.581.082l-1.839-.916a.483.483 0 0 0-.548.083l-7.056 6.847c-.308.296-.619.094-.714.003a.474.474 0 0 1-.003-.687Z"/></g><defs><clipPath id="clip0_544_50"><path fill="#fff" transform="translate(.8 .593)" d="M0 0h32v30.815H0z"/></clipPath></defs></svg>